<?xml version="1.0" standalone="no"?>
<!DOCTYPE svg PUBLIC "-//W3C//DTD SVG 20010904//EN"
 "http://www.w3.org/TR/2001/REC-SVG-20010904/DTD/svg10.dtd">
<svg version="1.0" xmlns="http://www.w3.org/2000/svg"
 width="420.000000pt" height="381.000000pt" viewBox="0 0 420.000000 381.000000"
 preserveAspectRatio="xMidYMid meet">

<g transform="translate(0.000000,381.000000) scale(0.100000,-0.100000)"
fill="#000000" stroke="none">
<path d="M826 3643 c-4 -10 -15 -14 -31 -11 -20 4 -25 1 -25 -16 0 -12 5 -27
12 -34 9 -9 2 -12 -31 -12 -36 0 -41 -2 -32 -14 7 -8 23 -17 37 -20 31 -8 98
-50 137 -85 l29 -26 -8 30 c-10 42 -31 64 -70 71 -41 8 -44 21 -6 30 15 3 41
10 57 14 29 8 29 8 4 9 -32 1 -51 21 -39 41 7 11 15 12 47 2 21 -7 65 -17 98
-22 33 -6 94 -17 135 -26 134 -27 234 -44 239 -39 13 14 -29 27 -194 61 -311
63 -351 69 -359 47z"/>
<path d="M625 3570 c3 -5 18 -10 33 -9 24 0 25 1 7 9 -28 12 -47 12 -40 0z"/>
<path d="M968 3553 c6 -2 18 -2 25 0 6 3 1 5 -13 5 -14 0 -19 -2 -12 -5z"/>
<path d="M1038 3543 c6 -2 18 -2 25 0 6 3 1 5 -13 5 -14 0 -19 -2 -12 -5z"/>
<path d="M1524 3539 c-3 -6 -19 -9 -34 -6 -24 5 -28 2 -40 -33 -7 -22 -24 -49
-36 -61 -13 -13 -24 -26 -24 -31 0 -12 88 -10 95 2 10 17 72 11 245 -21 217
-41 240 -47 240 -63 0 -9 24 -15 80 -20 l81 -7 49 43 c27 23 48 43 46 45 -1 1
-35 9 -76 18 -41 9 -82 22 -91 31 -13 12 -18 12 -21 2 -5 -13 -2 -14 -336 44
-111 19 -125 24 -133 45 -9 24 -33 31 -45 12z"/>
<path d="M1118 3523 c6 -2 18 -2 25 0 6 3 1 5 -13 5 -14 0 -19 -2 -12 -5z"/>
<path d="M1188 3513 c6 -2 18 -2 25 0 6 3 1 5 -13 5 -14 0 -19 -2 -12 -5z"/>
<path d="M1273 3493 c9 -2 23 -2 30 0 6 3 -1 5 -18 5 -16 0 -22 -2 -12 -5z"/>
<path d="M1328 3483 c6 -2 18 -2 25 0 6 3 1 5 -13 5 -14 0 -19 -2 -12 -5z"/>
<path d="M2320 3337 c0 -25 -23 -42 -42 -31 -6 4 -9 1 -6 -7 12 -38 84 -3 76
37 -5 28 -28 29 -28 1z"/>
<path d="M351 3056 c4 -22 15 -68 24 -101 9 -33 19 -70 22 -82 4 -15 13 -23
28 -23 23 0 32 -21 54 -115 20 -83 34 -130 42 -139 5 -6 9 45 9 117 0 107 3
129 16 134 26 10 36 -11 66 -129 16 -62 35 -135 43 -163 7 -27 27 -97 43 -155
16 -58 33 -113 37 -123 14 -34 -10 -43 -67 -24 -40 13 -54 14 -60 4 -10 -15
-28 8 -28 36 0 9 -4 17 -8 17 -19 0 -52 89 -52 139 0 36 -3 50 -11 45 -8 -5
-10 -30 -5 -80 5 -62 3 -74 -9 -74 -10 0 -15 -10 -15 -30 0 -35 17 -41 22 -7
6 41 32 26 40 -23 23 -154 39 -269 52 -365 9 -60 19 -123 24 -140 18 -57 24 0
13 106 -6 56 -9 104 -6 107 3 3 5 -7 5 -21 0 -15 5 -27 10 -27 6 0 10 -11 10
-23 0 -28 28 -87 40 -87 27 0 57 -144 37 -176 -5 -9 7 -64 40 -184 8 -30 21
-80 29 -110 7 -30 21 -82 30 -115 9 -33 22 -85 28 -115 11 -47 17 -57 47 -71
19 -9 69 -23 112 -31 76 -14 77 -14 77 6 0 12 -5 37 -10 56 -10 32 -16 61 -56
240 -21 93 -39 174 -59 260 -9 41 -23 104 -32 140 -17 74 -38 166 -60 260 -8
36 -21 94 -29 130 -7 36 -20 92 -28 125 -8 33 -21 94 -31 135 -9 41 -24 104
-32 140 -21 91 -42 187 -53 240 -5 25 -14 61 -19 80 -6 19 -18 71 -27 115 -10
44 -23 85 -30 92 -6 7 -36 15 -65 18 -30 3 -72 10 -94 15 -22 5 -58 11 -81 13
l-40 5 7 -42z"/>
<path d="M1135 3053 c10 -43 25 -75 33 -71 53 21 122 54 122 58 0 3 -36 12
-81 20 l-80 16 6 -23z"/>
<path d="M2709 3044 c-8 -10 -21 -13 -37 -9 -26 6 -27 0 -7 -47 5 -13 2 -18
-9 -18 -12 0 -16 -10 -15 -42 l2 -43 6 35 c4 22 12 35 21 35 12 0 18 -24 27
-110 7 -60 17 -144 22 -185 5 -41 10 -85 10 -97 1 -13 6 -23 12 -23 12 0 7
107 -11 245 -20 153 -21 182 -5 195 16 13 21 65 6 74 -5 3 -15 -1 -22 -10z"/>
<path d="M3100 2734 c-74 -74 -147 -142 -162 -151 -31 -19 -45 -47 -57 -118
-5 -28 -17 -90 -26 -140 -10 -49 -20 -120 -24 -157 -3 -36 -9 -70 -14 -74 -4
-4 -7 -3 -7 2 -1 5 -11 74 -24 153 -18 115 -20 144 -9 148 15 6 18 43 4 43 -5
0 -13 9 -16 20 -5 16 -15 20 -51 20 -24 0 -44 4 -44 9 0 5 -7 11 -15 14 -21 9
-8 -50 21 -88 21 -28 50 -148 39 -165 -2 -4 -26 -4 -52 0 -26 5 -48 7 -49 6
-10 -15 -54 -180 -51 -190 3 -7 20 -13 38 -14 17 0 35 -5 38 -10 3 -5 21 -11
39 -14 24 -3 32 -1 32 11 0 13 2 13 14 1 22 -22 52 -256 38 -292 -6 -16 -7
-42 -2 -63 9 -40 16 -38 -70 -15 -86 23 -163 40 -184 40 -12 0 -31 7 -42 15
-18 14 -17 14 12 15 39 0 71 26 80 62 8 34 -22 52 -38 24 -7 -13 -17 -16 -34
-12 -27 7 -32 -10 -14 -45 9 -16 7 -19 -13 -19 -31 0 -67 39 -67 74 0 40 16
64 54 80 l33 14 -14 93 c-10 66 -11 101 -4 116 8 17 7 22 -1 20 -13 -2 -21 32
-46 203 -12 79 -15 127 -9 131 10 7 4 45 -10 65 -11 16 -103 27 -103 12 0 -6
9 -25 19 -42 23 -37 51 -195 55 -321 2 -49 7 -105 11 -122 9 -39 7 -39 -80
-17 -107 28 -155 37 -162 31 -3 -4 -7 -43 -8 -87 l-2 -79 -94 -113 c-51 -62
-132 -159 -180 -214 -109 -128 -158 -196 -187 -259 -13 -27 -27 -57 -32 -66
-5 -9 -12 -33 -16 -54 -5 -30 -4 -37 7 -33 13 4 76 96 99 143 5 11 18 31 29
45 19 24 20 24 40 6 15 -14 19 -26 14 -50 -3 -17 -9 -35 -14 -41 -4 -5 -10
-27 -14 -48 -4 -20 -11 -40 -16 -43 -5 -3 -9 -14 -9 -25 0 -20 30 -37 86 -46
29 -5 33 -1 64 48 95 156 108 168 133 127 8 -12 6 -32 -8 -75 -11 -32 -22 -62
-26 -68 -4 -5 -10 -26 -14 -46 -6 -32 -4 -37 15 -42 23 -6 23 -6 55 93 21 66
77 164 139 246 65 84 203 230 211 223 3 -4 -24 -41 -61 -84 l-67 -76 2 -97 c1
-53 4 -98 6 -101 2 -2 22 1 45 7 28 7 40 7 40 -1 0 -6 -26 -42 -58 -81 -63
-77 -80 -105 -112 -181 -11 -27 -25 -58 -30 -67 -26 -46 12 -3 155 177 149
187 187 223 237 227 13 0 104 -23 203 -52 99 -28 190 -54 202 -57 40 -9 45
-27 20 -64 -83 -122 -141 -231 -169 -312 -57 -171 -48 -339 20 -365 15 -6 110
-38 211 -72 l184 -60 23 21 c12 11 33 42 46 67 14 26 38 72 55 102 16 30 49
91 73 135 23 44 57 107 75 140 18 33 54 101 80 150 26 50 55 104 65 120 10 17
35 64 57 105 74 139 136 255 180 334 23 43 56 119 73 170 42 131 65 333 38
340 -7 2 -34 10 -60 19 -57 19 -49 26 -151 -138 -57 -93 -267 -427 -351 -557
-6 -10 -14 -18 -18 -18 -11 0 -21 42 -11 49 5 3 51 74 102 156 51 83 113 180
136 216 51 78 58 103 80 269 9 69 21 157 26 195 14 107 51 414 56 468 3 26 1
47 -4 47 -5 0 -23 -17 -39 -37 -16 -21 -56 -71 -89 -113 -119 -149 -128 -162
-135 -193 -6 -26 -9 -29 -15 -14 -10 24 11 71 54 122 20 23 54 64 76 90 22 27
57 69 78 93 l38 44 -25 13 c-13 7 -53 16 -88 20 -34 4 -67 10 -73 14 -10 6
-78 20 -222 44 -39 7 -75 15 -79 20 -22 22 -57 -2 -184 -129z m417 -406 c-2
-13 -4 -5 -4 17 -1 22 1 32 4 23 2 -10 2 -28 0 -40z m-10 -80 c-2 -13 -4 -5
-4 17 -1 22 1 32 4 23 2 -10 2 -28 0 -40z m-12 -70 c-4 -18 -11 -53 -15 -78
-9 -57 -12 -13 -4 58 4 28 11 52 17 52 6 0 7 -13 2 -32z m-768 -25 c-3 -10 -5
-4 -5 12 0 17 2 24 5 18 2 -7 2 -21 0 -30z m817 -101 c-17 -41 -54 -95 -61
-88 -7 7 28 147 41 165 8 11 13 8 22 -15 10 -23 9 -36 -2 -62z m-78 -34 c-4
-18 -11 -51 -16 -73 -9 -37 -9 -36 -5 15 3 30 5 63 5 73 0 9 5 17 11 17 7 0 9
-11 5 -32z m-78 -65 c3 -33 -28 -233 -52 -333 -15 -64 -18 -65 -130 -28 -51
17 -70 28 -77 46 -12 31 -11 154 1 187 25 67 112 143 178 156 63 12 77 8 80
-28z m548 -85 c-13 -109 -57 -216 -199 -483 -89 -167 -148 -279 -205 -385 -24
-47 -57 -107 -72 -135 -15 -27 -51 -95 -80 -150 -103 -196 -122 -230 -131
-240 -16 -16 -10 85 10 175 27 119 55 178 230 485 85 149 163 286 174 305 11
19 72 125 135 235 64 110 121 210 126 222 17 35 19 28 12 -29z m-496 -6 c0 -9
-5 -24 -10 -32 -7 -11 -10 -5 -10 23 0 23 4 36 10 32 6 -3 10 -14 10 -23z m90
18 c0 -18 -38 -86 -56 -101 -16 -13 -17 -12 -10 16 12 50 66 119 66 85z m-113
-122 c-2 -13 -4 -5 -4 17 -1 22 1 32 4 23 2 -10 2 -28 0 -40z m-10 -58 c-5
-34 -17 -35 -17 -1 0 19 4 30 10 26 5 -3 8 -15 7 -25z m-20 -97 c-3 -10 -5 -2
-5 17 0 19 2 27 5 18 2 -10 2 -26 0 -35z m0 -115 c-3 -7 -5 -2 -5 12 0 14 2
19 5 13 2 -7 2 -19 0 -25z"/>
<path d="M2663 2795 c0 -27 2 -38 4 -22 2 15 2 37 0 50 -2 12 -4 0 -4 -28z"/>
<path d="M2362 2813 c-22 -3 -30 -8 -25 -16 4 -7 9 -23 10 -37 2 -14 6 -51 9
-82 3 -32 10 -58 16 -58 6 0 7 22 3 60 -4 33 -3 60 2 60 8 0 78 -111 76 -120
-4 -13 44 -19 124 -17 76 2 89 0 105 -18 19 -20 19 -19 13 20 -17 112 -23 138
-24 118 -1 -31 -13 -29 -34 7 -29 49 -98 82 -175 85 -37 2 -82 1 -100 -2z"/>
<path d="M1110 2791 c0 -51 -48 -84 -90 -61 -31 17 -34 -7 -5 -45 32 -43 66
-46 100 -9 29 31 33 87 10 118 -15 19 -15 19 -15 -3z"/>
<path d="M907 2734 c-10 -11 -8 -53 3 -75 17 -31 29 -22 23 19 -7 44 -17 65
-26 56z"/>
<path d="M2490 2580 c0 -5 5 -10 10 -10 6 0 10 5 10 10 0 6 -4 10 -10 10 -5 0
-10 -4 -10 -10z"/>
<path d="M381 2445 c0 -47 4 -66 20 -85 19 -24 20 -24 9 -2 -6 13 -15 51 -19
85 l-8 62 -2 -60z"/>
<path d="M629 2424 c-8 -10 -21 -13 -36 -9 -26 6 -28 2 -13 -26 6 -10 19 -19
29 -19 22 0 51 30 51 53 0 21 -14 22 -31 1z"/>
<path d="M502 2210 c0 -19 2 -27 5 -17 2 9 2 25 0 35 -3 9 -5 1 -5 -18z"/>
<path d="M512 2115 c0 -16 2 -22 5 -12 2 9 2 23 0 30 -3 6 -5 -1 -5 -18z"/>
<path d="M532 2000 c0 -19 2 -27 5 -17 2 9 2 25 0 35 -3 9 -5 1 -5 -18z"/>
<path d="M542 1910 c0 -14 2 -19 5 -12 2 6 2 18 0 25 -3 6 -5 1 -5 -13z"/>
<path d="M562 1800 c0 -19 2 -27 5 -17 2 9 2 25 0 35 -3 9 -5 1 -5 -18z"/>
<path d="M510 1686 c0 -13 10 -36 23 -52 31 -40 45 -83 62 -199 43 -287 44
-289 33 -303 -9 -10 -9 -22 0 -45 6 -18 20 -90 32 -162 41 -258 43 -265 82
-265 14 0 18 5 14 18 -8 25 18 97 50 139 26 34 54 44 54 18 0 -8 4 -15 9 -15
5 0 9 36 8 80 -1 51 3 84 11 92 16 16 15 28 -3 28 -26 0 -48 -47 -42 -89 4
-32 1 -43 -17 -60 -12 -12 -27 -21 -33 -21 -16 0 -47 205 -34 229 14 26 14 31
-4 31 -18 0 -17 -3 -56 230 -17 102 -33 195 -36 207 -3 15 1 23 16 28 26 8 27
27 1 50 -11 10 -20 26 -20 37 0 14 -8 18 -40 18 -22 0 -56 7 -75 14 -34 15
-35 14 -35 -8z"/>
<path d="M1100 875 c0 -44 -3 -102 -6 -130 l-6 -50 42 -13 c23 -7 44 -11 46
-10 1 2 -3 24 -11 48 -7 25 -21 81 -31 125 -25 114 -33 121 -34 30z"/>
<path d="M1016 875 c-4 -12 -14 -16 -32 -12 -21 4 -25 1 -22 -17 5 -33 54 -35
70 -1 8 18 8 29 1 36 -7 7 -12 5 -17 -6z"/>
<path d="M780 735 c0 -19 26 -36 44 -29 29 11 19 39 -14 40 -18 1 -30 -4 -30
-11z"/>
<path d="M1260 710 c0 -6 8 -13 18 -16 9 -3 26 -9 37 -14 11 -4 49 -18 85 -30
36 -12 74 -26 85 -30 137 -54 195 -54 315 3 35 16 90 58 90 68 0 4 -37 -10
-83 -31 -45 -21 -111 -43 -146 -49 l-64 -10 -156 59 c-162 62 -181 67 -181 50z"/>
<path d="M790 491 c0 -19 28 -56 36 -48 7 6 -13 54 -25 62 -7 3 -11 -2 -11
-14z"/>
<path d="M906 445 c-11 -29 -6 -55 9 -55 9 0 30 -7 46 -16 17 -8 33 -13 36
-10 10 10 -18 74 -35 79 -9 3 -24 8 -33 11 -11 5 -19 1 -23 -9z"/>
<path d="M1076 382 c-3 -3 -6 -15 -6 -28 0 -20 37 -54 60 -54 5 0 38 -13 72
-29 141 -64 359 -153 364 -149 2 3 -4 25 -15 49 -13 30 -28 47 -47 55 -122 46
-151 59 -168 73 -10 9 -19 15 -20 13 0 -2 -14 1 -29 7 -16 6 -34 11 -40 11 -7
0 -25 7 -42 16 -37 20 -122 44 -129 36z"/>
</g>
</svg>
